# xmcd
#
# Track frame offsets:
#	150
#	11005
#	20870
#	33200
#	44207
#	57217
#	70967
#	80955
#	92228
#	105803
#	119218
#	132656
#	146011
#	158818
#	168328
#	178779
#
# Disc length: 2547 seconds
#
# Revision: 2
# Processed by: cddbd v1.5.2PL0 Copyright (c) Steve Scherf et al.
# Submitted via: audiograbber 1.83.01
#
DISCID=ed09f110
DTITLE=Various Artist - THE BEST OF RHYTHM and BLUES CD5
DYEAR=1900
DGENRE=
TTITLE0=CHUCK BERRY - ROLL OVER BEETHOVEN
TTITLE1=RICHARD BERRY - LOUIE LOUIE
TTITLE2=LARRY WILLIAMS - SLOW DOWN
TTITLE3=FATS DOMINO - AIN'T IT A SHAME
TTITLE4=CHUCK WILLIS - I FEEL SO BAD
TTITLE5=THE ORIOLES - CRYING IN THE CHAPEL
TTITLE6=LESTER WILLIAMS - I CAN'T LOSE WITH THE STUFF I USE
TTITLE7=THE DOMINOES - SIXTY MINUTE MAN
TTITLE8=JOE LIGGINS - PINK CHAMPAGNE
TTITLE9=JULIA LEE and HER BOYFRIENDS - THE SPINACH SONG
TTITLE10=BULL MOOSE JACKSON - I LOVE YOU, YES I DO
TTITLE11=JACK Mc VEA AND HIS ALL STARS - OPEN THE DOOR RICHARD
TTITLE12=WYNONIE BLUES HARRIS - WYNONIE'S BLUES
TTITLE13=THE HAWKETTES - MARDI GRAS MAMBO
TTITLE14=JB LENOIR - MAMA TALK TO YOUR DAUGHTER
TTITLE15=ELLA and BUDDY JOHNSON ORCHESTRA - (GOTTA GO) UPSIDE YOUR HEAD
EXTD=
EXTT0=
EXTT1=
EXTT2=
EXTT3=
EXTT4=
EXTT5=
EXTT6=
EXTT7=
EXTT8=
EXTT9=
EXTT10=
EXTT11=
EXTT12=
EXTT13=
EXTT14=
EXTT15=
PLAYORDER=
